<svg version="1.1" id="Layer_1" xmlns="http://www.w3.org/2000/svg" xmlns:xlink="http://www.w3.org/1999/xlink" x="0px" y="0px"
	 width="100%" viewBox="0 0 254 254" enable-background="new 0 0 254 254" xml:space="preserve">
<path fill="#393E46" opacity="1.000000" stroke="none" 
	d="
M171.000000,255.000000 
	C114.000000,255.000000 57.500008,255.000000 1.000008,255.000000 
	C1.000005,170.333344 1.000005,85.666687 1.000003,1.000019 
	C85.666649,1.000013 170.333298,1.000013 254.999969,1.000006 
	C254.999969,85.666649 254.999969,170.333298 254.999985,254.999969 
	C227.166672,255.000000 199.333328,255.000000 171.000000,255.000000 
M55.139305,98.994965 
	C56.489697,99.665138 57.817631,100.853462 59.194481,100.913139 
	C64.349525,101.136559 69.523827,101.104210 74.684814,100.955940 
	C81.744873,100.753128 88.220863,96.710106 89.514099,91.221123 
	C90.174355,88.418709 90.393967,84.973450 89.327995,82.444618 
	C88.093391,79.515739 85.227341,77.274559 82.902420,74.538147 
	C87.440010,70.880814 88.569519,65.696167 86.257507,60.153122 
	C83.801498,54.264866 78.370361,53.064194 72.606323,53.008362 
	C68.441307,52.968018 64.260368,53.216778 60.114624,52.930176 
	C56.135342,52.655083 54.892979,54.167942 54.949612,58.081062 
	C55.142471,71.407570 55.038666,84.738380 55.139305,98.994965 
M195.932220,69.858543 
	C193.702972,67.984589 191.582047,64.716263 189.221481,64.532890 
	C184.598709,64.173798 179.842300,65.534958 174.703247,66.244568 
	C174.703247,61.309738 174.703247,55.262070 174.703247,49.298538 
	C165.215332,48.495693 165.215118,48.495693 165.214981,57.156456 
	C165.214798,69.649750 165.212036,82.143051 165.216156,94.636345 
	C165.218307,101.189613 165.224350,101.205330 171.911011,100.993256 
	C172.847000,100.963577 173.775330,100.691231 175.015228,100.478325 
	C175.015228,96.921349 175.015030,93.614014 175.015274,90.306686 
	C175.015518,86.808563 174.943054,83.308456 175.037888,79.812897 
	C175.126755,76.537384 179.256821,72.071472 182.278534,72.120110 
	C186.432098,72.186974 187.376175,75.472076 187.789749,78.625061 
	C188.198227,81.739342 187.965485,84.940094 187.980118,88.103065 
	C187.999161,92.222084 187.984772,96.341263 187.984772,100.994904 
	C190.651413,100.994904 192.825882,101.288559 194.857407,100.876846 
	C195.950302,100.655350 197.654526,99.194130 197.624817,98.343193 
	C197.301895,89.092323 196.689850,79.851562 195.932220,69.858543 
M33.020691,176.496872 
	C33.020691,179.492447 33.020542,182.488007 33.020725,185.483582 
	C33.021206,193.476151 33.022034,193.487473 40.966125,192.944107 
	C41.573387,192.902573 42.158852,192.542404 43.005352,192.240997 
	C43.005352,189.491867 43.005352,186.846909 43.005352,184.201965 
	C43.005352,181.589752 43.005352,178.977554 43.005352,175.963760 
	C46.132111,175.963760 48.770752,176.130234 51.382072,175.933701 
	C60.537643,175.244583 66.556908,168.540482 66.418022,159.348099 
	C66.286430,150.638748 60.370228,145.194443 50.765972,145.016235 
	C46.939548,144.945251 43.087688,145.261581 39.289024,144.927841 
	C34.566868,144.512985 32.702557,146.060806 32.923203,151.038208 
	C33.283981,159.176880 33.020714,167.343201 33.020691,176.496872 
M136.864594,192.108536 
	C135.780991,196.716553 134.697403,201.324570 133.608353,205.955811 
	C139.463150,208.433517 143.336594,207.514359 144.844223,203.047897 
	C149.435577,189.445496 153.978638,175.826599 158.469147,162.190628 
	C158.945618,160.743805 158.950912,159.141830 159.171310,157.635727 
	C150.380890,156.157104 150.397522,156.162292 148.078323,163.597412 
	C146.385040,169.025848 144.640686,174.438370 142.617310,180.808044 
	C140.416931,174.445541 138.580002,169.148712 136.753296,163.848358 
	C134.124603,156.220993 133.978165,156.136871 124.074814,157.691528 
	C128.217834,169.076706 132.289215,180.265030 136.864594,192.108536 
M169.747192,157.979477 
	C161.523666,163.567383 160.873016,171.741806 162.011505,180.546890 
	C162.931305,187.660660 167.270081,192.874496 174.168259,193.728149 
	C178.540604,194.269241 183.080017,193.543732 187.538528,193.283798 
	C192.727249,192.981277 193.908066,190.056229 192.419556,185.222549 
	C185.113190,184.680099 174.791946,192.426971 171.322922,178.008682 
	C177.750305,178.008682 183.393860,178.026230 189.037262,178.003479 
	C194.143555,177.982895 195.063171,176.907639 194.499481,171.737885 
	C192.995346,157.943283 183.639145,152.460037 169.747192,157.979477 
M119.721886,164.357452 
	C118.284454,159.262741 114.704643,156.571899 109.648819,156.096130 
	C103.266769,155.495590 96.861053,155.785812 92.101189,160.824783 
	C91.155411,161.826019 91.915924,164.439056 91.889603,166.308838 
	C93.219040,166.169861 94.612465,166.235901 95.863396,165.845413 
	C97.903175,165.208725 99.792915,164.065079 101.846748,163.504654 
	C107.823860,161.873779 110.375084,164.171417 109.880142,170.744766 
	C102.168739,171.582764 92.965782,169.527405 89.759613,180.070587 
	C88.344986,184.722443 89.665344,188.903214 93.419479,191.607147 
	C99.634369,196.083435 105.895386,194.577682 111.576233,190.265427 
	C113.262215,195.045273 116.727783,192.311203 119.877754,192.931610 
	C119.877754,183.412827 119.877754,174.306763 119.721886,164.357452 
M129.453125,100.276413 
	C136.270065,104.091492 142.130432,101.819672 147.593048,96.966965 
	C148.509842,103.527794 152.662567,100.312836 155.727646,100.684380 
	C155.727646,88.686264 155.727646,77.114830 155.727646,65.295433 
	C154.523926,65.177658 153.565048,65.026047 152.602676,64.999039 
	C146.236603,64.820282 146.232193,64.828987 146.220993,71.187836 
	C146.213364,75.512962 146.224884,79.838104 146.218094,84.163231 
	C146.209702,89.502594 143.030838,93.948769 139.238174,93.941277 
	C135.855408,93.934593 134.000626,90.671631 133.989243,84.652252 
	C133.977112,78.228714 133.986511,71.805138 133.986511,65.295097 
	C132.293625,65.152664 131.306854,65.143387 130.347443,64.976593 
	C125.243950,64.089310 123.596634,66.187988 124.015030,71.266861 
	C124.464203,76.719467 124.023949,82.239761 124.146034,87.726639 
	C124.247414,92.282608 125.044258,96.662216 129.453125,100.276413 
M72.214935,176.493988 
	C72.215012,180.321136 72.448189,184.166489 72.150986,187.970398 
	C71.840775,191.940750 73.275414,193.587296 77.244743,193.030655 
	C78.672180,192.830490 80.124840,192.810089 81.620369,192.703796 
	C81.620369,175.332886 81.620369,158.314438 81.620369,141.339874 
	C72.215439,140.394638 72.215240,140.394638 72.214996,149.039154 
	C72.214745,157.858215 72.214935,166.677292 72.214935,176.493988 
M107.011871,98.190643 
	C107.013016,93.032249 106.680237,87.842796 107.155876,82.728539 
	C107.394501,80.162750 108.477974,76.984703 110.318352,75.444550 
	C112.334671,73.757149 115.664093,73.638817 119.470108,72.531578 
	C118.859238,70.162132 118.142166,64.654236 117.313896,64.637459 
	C113.618523,64.562630 109.891380,66.056190 106.214394,66.973503 
	C106.181801,63.629723 102.455505,64.664742 99.945175,65.230461 
	C98.747589,65.500351 97.385483,68.223351 97.336143,69.872246 
	C97.077431,78.517303 97.114967,87.176361 97.300568,95.825172 
	C97.337219,97.533104 98.472389,100.660309 99.103722,100.661011 
	C101.731544,100.663956 104.360435,99.721947 107.011871,98.190643 
M220.050964,165.679642 
	C220.855988,165.658340 222.364487,165.655899 222.365631,165.613052 
	C222.443497,162.709488 223.053452,159.532837 222.022964,157.038422 
	C221.647995,156.130753 217.216156,156.375610 214.864502,156.982712 
	C213.153076,157.424515 211.817993,159.324097 210.128281,160.729111 
	C210.278107,155.651520 206.684738,157.109909 204.131042,157.027161 
	C200.737930,156.917206 201.233185,159.529114 201.226532,161.637192 
	C201.199753,170.133911 201.516708,178.645538 201.101715,187.122025 
	C200.853378,192.194321 202.794830,193.726990 207.405411,193.016357 
	C208.500381,192.847610 209.599243,192.704163 211.015808,192.503906 
	C211.015808,186.093719 210.940552,179.952881 211.039978,173.814880 
	C211.117401,169.035492 214.470383,165.713989 220.050964,165.679642 
z"/>
<path fill="#EFEFF0" opacity="1.000000" stroke="none" 
	d="
M55.093712,98.531250 
	C55.038666,84.738380 55.142471,71.407570 54.949612,58.081062 
	C54.892979,54.167942 56.135342,52.655083 60.114624,52.930176 
	C64.260368,53.216778 68.441307,52.968018 72.606323,53.008362 
	C78.370361,53.064194 83.801498,54.264866 86.257507,60.153122 
	C88.569519,65.696167 87.440010,70.880814 82.902420,74.538147 
	C85.227341,77.274559 88.093391,79.515739 89.327995,82.444618 
	C90.393967,84.973450 90.174355,88.418709 89.514099,91.221123 
	C88.220863,96.710106 81.744873,100.753128 74.684814,100.955940 
	C69.523827,101.104210 64.349525,101.136559 59.194481,100.913139 
	C57.817631,100.853462 56.489697,99.665138 55.093712,98.531250 
M76.716614,81.503899 
	C72.953484,80.850716 69.190353,80.197533 65.264519,79.516113 
	C65.264519,84.971565 65.264519,89.350487 65.264519,93.996506 
	C67.683250,93.996506 69.958679,94.476784 71.899986,93.876534 
	C74.399467,93.103699 77.872437,91.971054 78.649757,90.065041 
	C79.531548,87.902863 77.896477,84.714249 76.716614,81.503899 
M68.358681,73.002823 
	C74.950195,72.786774 77.495399,70.616249 77.052147,65.589134 
	C76.639313,60.906925 72.890915,59.295300 64.973663,60.595570 
	C64.973663,63.830624 64.794518,67.141182 65.087654,70.409378 
	C65.170822,71.336624 66.630836,72.140373 68.358681,73.002823 
z"/>
<path fill="#ECECED" opacity="1.000000" stroke="none" 
	d="
M196.044418,70.233292 
	C196.689850,79.851562 197.301895,89.092323 197.624817,98.343193 
	C197.654526,99.194130 195.950302,100.655350 194.857407,100.876846 
	C192.825882,101.288559 190.651413,100.994904 187.984772,100.994904 
	C187.984772,96.341263 187.999161,92.222084 187.980118,88.103065 
	C187.965485,84.940094 188.198227,81.739342 187.789749,78.625061 
	C187.376175,75.472076 186.432098,72.186974 182.278534,72.120110 
	C179.256821,72.071472 175.126755,76.537384 175.037888,79.812897 
	C174.943054,83.308456 175.015518,86.808563 175.015274,90.306686 
	C175.015030,93.614014 175.015228,96.921349 175.015228,100.478325 
	C173.775330,100.691231 172.847000,100.963577 171.911011,100.993256 
	C165.224350,101.205330 165.218307,101.189613 165.216156,94.636345 
	C165.212036,82.143051 165.214798,69.649750 165.214981,57.156456 
	C165.215118,48.495693 165.215332,48.495693 174.703247,49.298538 
	C174.703247,55.262070 174.703247,61.309738 174.703247,66.244568 
	C179.842300,65.534958 184.598709,64.173798 189.221481,64.532890 
	C191.582047,64.716263 193.702972,67.984589 196.044418,70.233292 
z"/>
<path fill="#F0F0F0" opacity="1.000000" stroke="none" 
	d="
M33.020691,175.997375 
	C33.020714,167.343201 33.283981,159.176880 32.923203,151.038208 
	C32.702557,146.060806 34.566868,144.512985 39.289024,144.927841 
	C43.087688,145.261581 46.939548,144.945251 50.765972,145.016235 
	C60.370228,145.194443 66.286430,150.638748 66.418022,159.348099 
	C66.556908,168.540482 60.537643,175.244583 51.382072,175.933701 
	C48.770752,176.130234 46.132111,175.963760 43.005352,175.963760 
	C43.005352,178.977554 43.005352,181.589752 43.005352,184.201965 
	C43.005352,186.846909 43.005352,189.491867 43.005352,192.240997 
	C42.158852,192.542404 41.573387,192.902573 40.966125,192.944107 
	C33.022034,193.487473 33.021206,193.476151 33.020725,185.483582 
	C33.020542,182.488007 33.020691,179.492447 33.020691,175.997375 
M44.508392,167.985229 
	C45.004353,167.991196 45.500786,168.014282 45.996201,168.000549 
	C52.575821,167.818375 55.916897,165.140274 55.883385,160.081818 
	C55.852699,155.449310 52.379353,152.972092 45.898945,153.011688 
	C44.986942,153.017258 44.076134,153.218201 42.723125,153.382278 
	C43.030323,158.432083 43.317284,163.149185 44.508392,167.985229 
z"/>
<path fill="#EDEDEE" opacity="1.000000" stroke="none" 
	d="
M136.612610,191.780945 
	C132.289215,180.265030 128.217834,169.076706 124.074814,157.691528 
	C133.978165,156.136871 134.124603,156.220993 136.753296,163.848358 
	C138.580002,169.148712 140.416931,174.445541 142.617310,180.808044 
	C144.640686,174.438370 146.385040,169.025848 148.078323,163.597412 
	C150.397522,156.162292 150.380890,156.157104 159.171310,157.635727 
	C158.950912,159.141830 158.945618,160.743805 158.469147,162.190628 
	C153.978638,175.826599 149.435577,189.445496 144.844223,203.047897 
	C143.336594,207.514359 139.463150,208.433517 133.608353,205.955811 
	C134.697403,201.324570 135.780991,196.716553 136.612610,191.780945 
z"/>
<path fill="#EFEFEF" opacity="1.000000" stroke="none" 
	d="
M170.093933,157.808807 
	C183.639145,152.460037 192.995346,157.943283 194.499481,171.737885 
	C195.063171,176.907639 194.143555,177.982895 189.037262,178.003479 
	C183.393860,178.026230 177.750305,178.008682 171.322922,178.008682 
	C174.791946,192.426971 185.113190,184.680099 192.419556,185.222549 
	C193.908066,190.056229 192.727249,192.981277 187.538528,193.283798 
	C183.080017,193.543732 178.540604,194.269241 174.168259,193.728149 
	C167.270081,192.874496 162.931305,187.660660 162.011505,180.546890 
	C160.873016,171.741806 161.523666,163.567383 170.093933,157.808807 
M181.444321,163.934418 
	C175.339706,162.054749 171.916397,164.899918 172.164703,171.701721 
	C176.391800,171.701721 180.617401,171.701721 185.973648,171.701721 
	C184.461411,168.766159 183.304550,166.520447 181.444321,163.934418 
z"/>
<path fill="#EEEEEE" opacity="1.000000" stroke="none" 
	d="
M119.799820,164.779068 
	C119.877754,174.306763 119.877754,183.412827 119.877754,192.931610 
	C116.727783,192.311203 113.262215,195.045273 111.576233,190.265427 
	C105.895386,194.577682 99.634369,196.083435 93.419479,191.607147 
	C89.665344,188.903214 88.344986,184.722443 89.759613,180.070587 
	C92.965782,169.527405 102.168739,171.582764 109.880142,170.744766 
	C110.375084,164.171417 107.823860,161.873779 101.846748,163.504654 
	C99.792915,164.065079 97.903175,165.208725 95.863396,165.845413 
	C94.612465,166.235901 93.219040,166.169861 91.889603,166.308838 
	C91.915924,164.439056 91.155411,161.826019 92.101189,160.824783 
	C96.861053,155.785812 103.266769,155.495590 109.648819,156.096130 
	C114.704643,156.571899 118.284454,159.262741 119.799820,164.779068 
M109.406357,177.099487 
	C106.815239,177.447861 103.876884,177.174881 101.754028,178.361191 
	C100.318398,179.163437 98.971634,182.434540 99.522942,183.842712 
	C100.091415,185.294708 103.174133,186.845718 104.864647,186.568924 
	C109.650078,185.785400 111.038994,182.239029 109.406357,177.099487 
z"/>
<path fill="#EDEDEE" opacity="1.000000" stroke="none" 
	d="
M129.124954,100.068832 
	C125.044258,96.662216 124.247414,92.282608 124.146034,87.726639 
	C124.023949,82.239761 124.464203,76.719467 124.015030,71.266861 
	C123.596634,66.187988 125.243950,64.089310 130.347443,64.976593 
	C131.306854,65.143387 132.293625,65.152664 133.986511,65.295097 
	C133.986511,71.805138 133.977112,78.228714 133.989243,84.652252 
	C134.000626,90.671631 135.855408,93.934593 139.238174,93.941277 
	C143.030838,93.948769 146.209702,89.502594 146.218094,84.163231 
	C146.224884,79.838104 146.213364,75.512962 146.220993,71.187836 
	C146.232193,64.828987 146.236603,64.820282 152.602676,64.999039 
	C153.565048,65.026047 154.523926,65.177658 155.727646,65.295433 
	C155.727646,77.114830 155.727646,88.686264 155.727646,100.684380 
	C152.662567,100.312836 148.509842,103.527794 147.593048,96.966965 
	C142.130432,101.819672 136.270065,104.091492 129.124954,100.068832 
z"/>
<path fill="#ECECED" opacity="1.000000" stroke="none" 
	d="
M72.214935,175.995178 
	C72.214935,166.677292 72.214745,157.858215 72.214996,149.039154 
	C72.215240,140.394638 72.215439,140.394638 81.620369,141.339874 
	C81.620369,158.314438 81.620369,175.332886 81.620369,192.703796 
	C80.124840,192.810089 78.672180,192.830490 77.244743,193.030655 
	C73.275414,193.587296 71.840775,191.940750 72.150986,187.970398 
	C72.448189,184.166489 72.215012,180.321136 72.214935,175.995178 
z"/>
<path fill="#ECECED" opacity="1.000000" stroke="none" 
	d="
M107.000397,98.658615 
	C104.360435,99.721947 101.731544,100.663956 99.103722,100.661011 
	C98.472389,100.660309 97.337219,97.533104 97.300568,95.825172 
	C97.114967,87.176361 97.077431,78.517303 97.336143,69.872246 
	C97.385483,68.223351 98.747589,65.500351 99.945175,65.230461 
	C102.455505,64.664742 106.181801,63.629723 106.214394,66.973503 
	C109.891380,66.056190 113.618523,64.562630 117.313896,64.637459 
	C118.142166,64.654236 118.859238,70.162132 119.470108,72.531578 
	C115.664093,73.638817 112.334671,73.757149 110.318352,75.444550 
	C108.477974,76.984703 107.394501,80.162750 107.155876,82.728539 
	C106.680237,87.842796 107.013016,93.032249 107.000397,98.658615 
z"/>
<path fill="#ECECED" opacity="1.000000" stroke="none" 
	d="
M219.692993,165.502197 
	C214.470383,165.713989 211.117401,169.035492 211.039978,173.814880 
	C210.940552,179.952881 211.015808,186.093719 211.015808,192.503906 
	C209.599243,192.704163 208.500381,192.847610 207.405411,193.016357 
	C202.794830,193.726990 200.853378,192.194321 201.101715,187.122025 
	C201.516708,178.645538 201.199753,170.133911 201.226532,161.637192 
	C201.233185,159.529114 200.737930,156.917206 204.131042,157.027161 
	C206.684738,157.109909 210.278107,155.651520 210.128281,160.729111 
	C211.817993,159.324097 213.153076,157.424515 214.864502,156.982712 
	C217.216156,156.375610 221.647995,156.130753 222.022964,157.038422 
	C223.053452,159.532837 222.443497,162.709488 222.365631,165.613052 
	C222.364487,165.655899 220.855988,165.658340 219.692993,165.502197 
z"/>
<path fill="#3D4249" opacity="1.000000" stroke="none" 
	d="
M77.036118,81.737885 
	C77.896477,84.714249 79.531548,87.902863 78.649757,90.065041 
	C77.872437,91.971054 74.399467,93.103699 71.899986,93.876534 
	C69.958679,94.476784 67.683250,93.996506 65.264519,93.996506 
	C65.264519,89.350487 65.264519,84.971565 65.264519,79.516113 
	C69.190353,80.197533 72.953484,80.850716 77.036118,81.737885 
z"/>
<path fill="#3D4249" opacity="1.000000" stroke="none" 
	d="
M67.909058,73.001785 
	C66.630836,72.140373 65.170822,71.336624 65.087654,70.409378 
	C64.794518,67.141182 64.973663,63.830624 64.973663,60.595570 
	C72.890915,59.295300 76.639313,60.906925 77.052147,65.589134 
	C77.495399,70.616249 74.950195,72.786774 67.909058,73.001785 
z"/>
<path fill="#3D4249" opacity="1.000000" stroke="none" 
	d="
M44.056320,167.925751 
	C43.317284,163.149185 43.030323,158.432083 42.723125,153.382278 
	C44.076134,153.218201 44.986942,153.017258 45.898945,153.011688 
	C52.379353,152.972092 55.852699,155.449310 55.883385,160.081818 
	C55.916897,165.140274 52.575821,167.818375 45.996201,168.000549 
	C45.500786,168.014282 45.004353,167.991196 44.056320,167.925751 
z"/>
<path fill="#3D4249" opacity="1.000000" stroke="none" 
	d="
M181.796005,164.104584 
	C183.304550,166.520447 184.461411,168.766159 185.973648,171.701721 
	C180.617401,171.701721 176.391800,171.701721 172.164703,171.701721 
	C171.916397,164.899918 175.339706,162.054749 181.796005,164.104584 
z"/>
<path fill="#3D4249" opacity="1.000000" stroke="none" 
	d="
M109.739395,177.388184 
	C111.038994,182.239029 109.650078,185.785400 104.864647,186.568924 
	C103.174133,186.845718 100.091415,185.294708 99.522942,183.842712 
	C98.971634,182.434540 100.318398,179.163437 101.754028,178.361191 
	C103.876884,177.174881 106.815239,177.447861 109.739395,177.388184 
z"/>
</svg>