<svg id="visual" viewBox="0 0 900 900" width="900" height="900" xmlns="http://www.w3.org/2000/svg" xmlns:xlink="http://www.w3.org/1999/xlink" version="1.1"><g transform="translate(450.15 450.15)">
<g transform="translate(450.15 450.15)"><path d="M161 -278.9C209.6 -250.7 250.7 -209.6 278.8 -161C306.9 -112.3 322 -56.2 322 0C322 56.2 306.9 112.3 278.8 161C250.7 209.6 209.6 250.7 161 278.8C112.3 306.9 56.2 322 0 322C-56.2 322 -112.3 306.9 -161 278.8C-209.6 250.7 -250.7 209.6 -278.9 161C-307.1 112.3 -322.3 56.2 -322.3 0C-322.3 -56.2 -307.1 -112.3 -278.9 -161C-250.7 -209.6 -209.6 -250.7 -161 -278.9C-112.3 -307.1 -56.2 -322.3 0 -322.3C56.2 -322.3 112.3 -307.1 161 -278.9" fill="none" stroke="#303030" stroke-width="220"></path></g>
<g transform="translate(450.15 450.15)"><path d="M161 -278.9C209.6 -250.7 250.7 -209.6 278.8 -161C306.9 -112.3 322 -56.2 322 0C322 56.2 306.9 112.3 278.8 161C250.7 209.6 209.6 250.7 161 278.8C112.3 306.9 56.2 322 0 322C-56.2 322 -112.3 306.9 -161 278.8C-209.6 250.7 -250.7 209.6 -278.9 161C-307.1 112.3 -322.3 56.2 -322.3 0C-322.3 -56.2 -307.1 -112.3 -278.9 -161C-250.7 -209.6 -209.6 -250.7 -161 -278.9C-112.3 -307.1 -56.2 -322.3 0 -322.3C56.2 -322.3 112.3 -307.1 161 -278.9" fill="none" stroke="#909090" stroke-width="250"></path></g>
</svg>